HIERARCHY
ROOT root
{
	OFFSET	0	13.1	24.9
	CHANNELS 6  Xposition Yposition Zposition Xrotation Yrotation Zrotation
	JOINT spine_1
	{
		OFFSET	0	9.99999	0
		CHANNELS 3  Xrotation Yrotation Zrotation
		JOINT spine_2
		{
			OFFSET	0	112	-10
			CHANNELS 3  Xrotation Yrotation Zrotation
			JOINT spine_3
			{
				OFFSET	0	206.5	19.3
				CHANNELS 3  Xrotation Yrotation Zrotation
				JOINT spine_4
				{
					OFFSET	0	110.4	14.6
					CHANNELS 3  Xrotation Yrotation Zrotation
					JOINT neck_1
					{
						OFFSET	0	71.8	-50.3
						CHANNELS 3  Xrotation Yrotation Zrotation
						JOINT neck_2
						{
							OFFSET	0	86.2	-25.8
							CHANNELS 3  Xrotation Yrotation Zrotation
							JOINT head_ee
							{
								OFFSET	0	179.8	-8.7
								CHANNELS 3  Xrotation Yrotation Zrotation
								End Site
								{
									OFFSET	1	0	0
								}
							}
						}
					}
					JOINT left_clavicle
					{
						OFFSET	-43.2	22.4	-70.8
						CHANNELS 3  Xrotation Yrotation Zrotation
						JOINT left_shoulder
						{
							OFFSET	-93.9	-5.79999	48.7
							CHANNELS 3  Xrotation Yrotation Zrotation
							JOINT left_elbow
							{
								OFFSET	-291.4	-30.8	15.2
								CHANNELS 3  Xrotation Yrotation Zrotation
								JOINT left_lowarm_twist
								{
									OFFSET	-110.7	-3.89999	13.6
									CHANNELS 3  Xrotation Yrotation Zrotation
									JOINT left_hand
									{
										OFFSET	-110.7	-3.89999	13.6
										CHANNELS 3  Xrotation Yrotation Zrotation
										JOINT left_ee
										{
											OFFSET	-80.8	-5.10001	12.1
											CHANNELS 3  Xrotation Yrotation Zrotation
											End Site
											{
												OFFSET	1	0	0
											}
										}
									}
								}
							}
						}
					}
					JOINT right_clavicle
					{
						OFFSET	43.2	22.4	-70.8
						CHANNELS 3  Xrotation Yrotation Zrotation
						JOINT right_shoulder
						{
							OFFSET	93.9	-5.79999	48.7
							CHANNELS 3  Xrotation Yrotation Zrotation
							JOINT right_elbow
							{
								OFFSET	291.4	-30.8	15.2
								CHANNELS 3  Xrotation Yrotation Zrotation
								JOINT right_lowarm_twist
								{
									OFFSET	110.7	-3.89999	13.6
									CHANNELS 3  Xrotation Yrotation Zrotation
									JOINT right_hand
									{
										OFFSET	110.7	-3.89999	13.6
										CHANNELS 3  Xrotation Yrotation Zrotation
										JOINT right_ee
										{
											OFFSET	80.8	-5.10001	12.1
											CHANNELS 3  Xrotation Yrotation Zrotation
											End Site
											{
												OFFSET	1	0	0
											}
										}
									}
								}
							}
						}
					}
				}
			}
		}
	}
	JOINT left_hip
	{
		OFFSET	-82.8	-127.5	0.300001
		CHANNELS 3  Xrotation Yrotation Zrotation
		JOINT left_knee
		{
			OFFSET	-28.2	-396.7	2.2
			CHANNELS 3  Xrotation Yrotation Zrotation
			JOINT left_ankle
			{
				OFFSET	-11.7	-411.3	35.4
				CHANNELS 3  Xrotation Yrotation Zrotation
				JOINT left_toes
				{
					OFFSET	0	-60	-88.6
					CHANNELS 3  Xrotation Yrotation Zrotation
					JOINT left_foot_ee
					{
						OFFSET	-22.5	-16.5	-42.2
						CHANNELS 3  Xrotation Yrotation Zrotation
						End Site
						{
							OFFSET	1	0	0
						}
					}
				}
			}
		}
	}
	JOINT right_hip
	{
		OFFSET	82.8	-127.5	0.300001
		CHANNELS 3  Xrotation Yrotation Zrotation
		JOINT right_knee
		{
			OFFSET	28.2	-396.7	2.2
			CHANNELS 3  Xrotation Yrotation Zrotation
			JOINT right_ankle
			{
				OFFSET	11.7	-411.3	35.4
				CHANNELS 3  Xrotation Yrotation Zrotation
				JOINT right_toes
				{
					OFFSET	0	-60	-88.6
					CHANNELS 3  Xrotation Yrotation Zrotation
					JOINT right_foot_ee
					{
						OFFSET	22.5	-16.5	-42.2
						CHANNELS 3  Xrotation Yrotation Zrotation
						End Site
						{
							OFFSET	1	0	0
						}
					}
				}
			}
		}
	}
}
MOTION
Frames: 6
Frame Time: 0.02
2555.29467115 759.297 -1455.82547125 13.9770540076 86.2031863303 -20.6542806284 1.55358 0.71629 4.18609 1.56322 0.44871 4.2231 1.59734 -0.331202 4.23392 1.57249 0.341007 4.23314 -13.2345 13.0823 -4.7172 -13.7361 27.8164 -0.364353 -0.0 0.0 -0.0 -9.55002 22.7462 -10.9479 -15.5834 -26.4083 74.5957 0.687979 -18.8194 0.114015 -13.781 -0.683994 1.61965 1.23166 5.10483 10.2781 -0.0 0.0 -0.0 12.3813 19.2153 -24.8649 -4.06234 18.9928 -70.7618 1.55311 37.5708 -0.528308 13.0411 -0.273911 1.63978 2.20067 8.48695 -11.3263 0.0 0.0 0.0 -0.643316 34.39 -6.43656 -32.568 -0.0628328 4.93099 38.1043 -14.7094 -4.98543 -31.4922 0.0 0.0 -0.0 0.0 -0.0 7.90855 17.095 -2.00754 -5.83403 -0.195863 -0.873543 28.4807 -2.20254 3.73297 -4.28389 0.0 0.0 0.0 0.0 0.0 
2549.16835507 758.769 -1447.52071791 36.517284935 87.4557776586 -43.321822679 1.47551 0.848849 4.18496 1.48506 0.581074 4.23038 1.52939 -0.207107 4.26501 1.50432 0.46845 4.2443 -13.8815 13.1121 -4.51925 -14.4487 27.7469 0.00993161 -0.0 0.0 -0.0 -9.32739 23.034 -10.5002 -16.4686 -25.473 73.3455 0.691406 -18.9065 0.115123 -13.6109 -0.673205 1.60073 1.30018 4.02469 10.317 -0.0 0.0 -0.0 12.6541 20.5039 -25.4052 -3.38256 18.8441 -70.5881 1.63339 38.9745 -0.578039 13.3704 -0.275964 1.6818 2.07919 8.73052 -10.3857 0.0 0.0 0.0 0.831295 33.4749 -7.36437 -28.6444 0.0935953 4.34931 38.8102 -15.3766 -5.0715 -32.0022 0.0 0.0 -0.0 0.0 -0.0 6.99916 17.5847 -1.92645 -6.5261 -0.213164 -0.978341 29.7637 -2.39856 3.87105 -3.35257 0.0 0.0 0.0 0.0 0.0 
2526.0815817 764.165 -1434.29852691 54.8531913589 87.2780580711 -61.4950370107 1.3993 1.07516 4.11204 1.40834 0.811559 4.17198 1.46932 0.0263732 4.24997 1.4448 0.696647 4.19267 -15.2278 13.1913 -2.94741 -15.9149 26.9617 1.87701 -0.0 0.0 -0.0 -9.60937 24.289 -10.4024 -17.6781 -25.5611 73.4321 0.675266 -18.4955 0.109948 -13.7179 -0.679986 1.61264 1.18231 3.08768 9.1583 -0.0 0.0 -0.0 12.4878 17.4112 -25.2159 -2.96857 20.4438 -70.2654 1.78658 41.5057 -0.677025 13.3125 -0.275621 1.6744 2.07259 9.00518 -10.2209 0.0 0.0 0.0 3.57321 32.8164 -8.87064 -20.7848 0.285483 3.15936 34.4811 -18.0697 -4.74516 -33.51 0.0 0.0 -0.0 0.0 -0.0 5.30272 17.8049 -1.562 -9.40572 -0.271514 -1.41633 32.3174 -8.10322 4.13379 -1.14361 0.0 0.0 0.0 0.0 0.0 
2519.34371449 773.081 -1426.11074188 96.1786848957 87.9973347537 -102.633071238 1.32187 0.915029 4.09345 1.33096 0.652927 4.14327 1.38005 -0.131184 4.19226 1.35593 0.531967 4.1605 -14.3174 12.8218 -3.374 -14.8901 26.5037 1.09983 -0.0 0.0 -0.0 -9.53393 24.4035 -10.2465 -17.7291 -25.4676 74.1947 0.627119 -17.2578 0.0951675 -13.7929 -0.684744 1.62096 1.0462 2.2287 7.90401 -0.0 0.0 -0.0 12.5855 17.3438 -25.445 -3.1044 20.6275 -70.5455 1.82644 42.1336 -0.7036 13.4169 -0.276235 1.68773 1.95918 10.2321 -8.90864 0.0 0.0 0.0 3.92498 32.5907 -8.24088 -14.0759 0.319161 2.13113 28.7051 -17.1741 -4.08337 -34.5743 0.0 0.0 -0.0 0.0 -0.0 5.46036 17.8503 -1.94837 -8.74453 -0.260065 -1.31552 33.2927 -10.5906 4.2446 -0.258042 0.0 0.0 0.0 0.0 0.0 
2489.4281584 773.117 -1431.06462867 -1.99614768928 83.7905801246 -2.72044213734 1.51685 0.781237 4.21535 1.52659 0.511669 4.25642 1.56584 -0.277593 4.27802 1.54053 0.400894 4.26825 -12.5426 12.0722 -5.09818 -12.8998 26.1426 -1.25064 -0.0 0.0 -0.0 -8.48142 24.1078 -8.85517 -15.0478 -22.4688 72.2824 0.530425 -14.7223 0.0685249 -12.4455 -0.600839 1.47034 1.23201 -2.18255 7.36686 -0.0 0.0 -0.0 12.2712 17.2108 -24.7265 -2.68902 22.9263 -72.2497 1.89319 43.158 -0.74882 13.2101 -0.274996 1.66135 0.704726 1.88134 -3.9351 0.0 0.0 0.0 7.22242 32.9668 -9.20588 -10.2535 0.284491 1.54577 27.3293 -17.0474 -3.91827 -38.6582 0.0 0.0 -0.0 0.0 -0.0 7.8598 22.1722 -3.56898 -9.54474 -0.273773 -1.43754 34.4074 -15.6953 4.40773 4.51933 -0.0 -0.0 0.0 0.0 0.0 
2467.09156737 766.618 -1455.48452681 4.60210339976 77.3182020891 -8.63655583785 1.67893 0.765478 3.94652 1.68745 0.513004 3.98714 1.72388 -0.215722 4.01418 1.70165 0.42043 3.99795 -12.4222 11.8294 -4.39089 -12.7589 25.2383 -0.680682 -0.0 0.0 -0.0 -8.36173 23.1593 -9.03434 -11.5769 -21.4375 69.4254 1.05051 -27.4914 0.256982 -10.8912 -0.508487 1.29422 1.08255 -1.40352 6.67672 -0.0 0.0 -0.0 12.3861 17.6886 -24.9666 -5.28805 21.1303 -72.8166 1.56396 37.7636 -0.534936 11.3429 -0.259495 1.42336 -0.478831 -7.05973 0.173854 0.0 0.0 0.0 7.47858 32.7848 -11.3475 -16.7889 0.320048 2.54733 31.5304 -16.023 -4.36503 -37.2184 0.0 0.0 -0.0 0.0 -0.0 5.7078 27.7809 -3.9462 -13.2512 -0.314987 -2.00467 31.8554 -15.3382 4.13843 12.4147 -0.0 -0.0 0.0 0.0 0.0 
